<?xml version="1.0" encoding="UTF-8" standalone="no" ?>
<!DOCTYPE svg PUBLIC "-//W3C//DTD SVG 1.1//EN" "http://www.w3.org/Graphics/SVG/1.1/DTD/svg11.dtd">
<svg width="177mm" xmlns="http://www.w3.org/2000/svg" height="259mm" version="1.1" viewBox="0 0 669 979" xmlns:xlink="http://www.w3.org/1999/xlink">
   <rect x="444" y="19" rx="11" ry="11" fill="#ffffff" width="200" height="90" stroke="#800000" stroke-width="1"/>
   <text x="546" y="27" fill="#000000" font-size="10" font-family="'Arial Unicode MS','Arial'" text-anchor="middle">Object-Oriented Model</text>
   <text x="448" y="42" fill="#000000" font-size="10" font-family="'Arial Unicode MS','Arial'" text-anchor="start">Model: Diagrama de UseCases MBQ</text>
   <text x="448" y="57" fill="#000000" font-size="10" font-family="'Arial Unicode MS','Arial'" text-anchor="start">Package: </text>
   <text x="448" y="72" fill="#000000" font-size="10" font-family="'Arial Unicode MS','Arial'" text-anchor="start">Diagram: Diagrama de UseCases MBQ</text>
   <text x="448" y="87" fill="#000000" font-size="10" font-family="'Arial Unicode MS','Arial'" text-anchor="start">Author: Rui Rodrigues</text>
   <text x="644" y="87" fill="#000000" font-size="10" font-family="'Arial Unicode MS','Arial'" text-anchor="end">Date: 12/03/2021 </text>
   <text x="448" y="102" fill="#000000" font-size="10" font-family="'Arial Unicode MS','Arial'" text-anchor="start">Version: </text>
   <line x1="444" x2="644" y1="94" y2="94" stroke="#800000" stroke-width="1"/>
   <line x1="444" x2="644" y1="79" y2="79" stroke="#800000" stroke-width="1"/>
   <line x1="444" x2="644" y1="64" y2="64" stroke="#800000" stroke-width="1"/>
   <line x1="444" x2="644" y1="49" y2="49" stroke="#800000" stroke-width="1"/>
   <line x1="444" x2="644" y1="34" y2="34" stroke="#800000" stroke-width="1"/>
   <text x="237" y="44" fill="#0000ff" font-size="18" font-family="'Arial Unicode MS','Arial'" font-weight="bold" text-anchor="middle">Diagrama de Uses Cases | </text>
   <text x="237" y="62" fill="#0000ff" font-size="18" font-family="'Arial Unicode MS','Arial'" font-weight="bold" text-anchor="middle">Movimento Bebe Quentinho</text>
   <rect x="483" y="373" fill="#ffffff" width="170" height="70" stroke="#800000" stroke-width="1"/>
   <text x="421" y="530" fill="#000000" font-size="10" font-family="'Arial Unicode MS','Arial'" text-anchor="middle">Include</text>
   <polyline fill="none" points="51,387 51,186" stroke="#800000" stroke-width="1"/>
   <polygon fill="#ffffff" points="51,186 58,200 44,200" stroke="#800000" stroke-width="1" stroke-linejoin="miter"/>
   <polyline fill="none" points="56,675 56,451" stroke="#800000" stroke-width="1"/>
   <polygon fill="#ffffff" points="56,451 63,465 49,465" stroke="#800000" stroke-width="1" stroke-linejoin="miter"/>
   <polyline fill="none" points="53,900 53,739" stroke="#800000" stroke-width="1"/>
   <polygon fill="#ffffff" points="53,739 59,753 46,753" stroke="#800000" stroke-width="1" stroke-linejoin="miter"/>
   <polyline fill="none" points="84,147 150,147" stroke="#800000" stroke-width="1"/>
   <polyline fill="none" points="89,431 366,431" stroke="#800000" stroke-width="1"/>
   <polyline fill="none" points="406,496 406,575" stroke="#800000" stroke-width="1" stroke-dasharray="16,8"/>
   <polyline fill="none" points="402,562 406,575 410,562" stroke="#800000" stroke-width="1"/>
   <path d="M398,422 L398,327 A8,8 0 0,1 406,319 L560,319" fill="none" stroke="#800000" stroke-width="1"/>
   <path d="M519,438 L519,443 L443,443" fill="none" stroke="#800000" stroke-width="1"/>
   <path d="M72,451 L72,603 A8,8 0 0,0 80,611 L403,611" fill="none" stroke="#800000" stroke-width="1"/>
   <path d="M397,595 L263,595 A8,8 0 0,1 255,587 L255,535" fill="none" stroke="#800000" stroke-width="1" stroke-dasharray="16,8"/>
   <polyline fill="none" points="259,548 255,535 251,548" stroke="#800000" stroke-width="1"/>
   <path d="M613,575 L613,467 A8,8 0 0,0 605,459 L447,459" fill="none" stroke="#800000" stroke-width="1"/>
   <path d="M462,760 L398,760 A8,8 0 0,1 390,752 L390,617" fill="none" stroke="#800000" stroke-width="1" stroke-dasharray="16,8"/>
   <polyline fill="none" points="390,606 390,601" stroke="#800000" stroke-width="1" stroke-dasharray="16,8"/>
   <path d="M390,617 A5,5 0 0,0 395,611" fill="none" stroke="#800000" stroke-width="1" stroke-dasharray="16,8"/>
   <line x1="395" x2="395" y1="611" y2="611" stroke="#800000" stroke-width="1" stroke-dasharray="16,8"/>
   <path d="M395,611 A5,5 0 0,0 390,606" fill="none" stroke="#800000" stroke-width="1" stroke-dasharray="16,8"/>
   <polyline fill="none" points="390,590 390,495" stroke="#800000" stroke-width="1" stroke-dasharray="16,8"/>
   <path d="M390,601 A5,5 0 0,0 395,595" fill="none" stroke="#800000" stroke-width="1" stroke-dasharray="16,8"/>
   <line x1="395" x2="395" y1="595" y2="595" stroke="#800000" stroke-width="1" stroke-dasharray="16,8"/>
   <path d="M395,595 A5,5 0 0,0 390,590" fill="none" stroke="#800000" stroke-width="1" stroke-dasharray="16,8"/>
   <polyline fill="none" points="449,764 462,760 449,756" stroke="#800000" stroke-width="1"/>
   <polyline fill="none" points="611,639 611,743" stroke="#800000" stroke-width="1"/>
   <polyline fill="none" points="558,181 476,181" stroke="#800000" stroke-width="1"/>
   <polyline fill="none" points="272,181 352,181" stroke="#800000" stroke-width="1" stroke-dasharray="16,8"/>
   <polyline fill="none" points="338,185 352,181 338,177" stroke="#800000" stroke-width="1"/>
   <polyline fill="none" points="323,710 323,617" stroke="#800000" stroke-width="1" stroke-dasharray="16,8"/>
   <polyline fill="none" points="323,606 323,601" stroke="#800000" stroke-width="1" stroke-dasharray="16,8"/>
   <path d="M323,617 A5,5 0 0,0 328,611" fill="none" stroke="#800000" stroke-width="1" stroke-dasharray="16,8"/>
   <line x1="328" x2="328" y1="611" y2="611" stroke="#800000" stroke-width="1" stroke-dasharray="16,8"/>
   <path d="M328,611 A5,5 0 0,0 323,606" fill="none" stroke="#800000" stroke-width="1" stroke-dasharray="16,8"/>
   <polyline fill="none" points="323,590 323,521" stroke="#800000" stroke-width="1" stroke-dasharray="16,8"/>
   <path d="M323,601 A5,5 0 0,0 328,595" fill="none" stroke="#800000" stroke-width="1" stroke-dasharray="16,8"/>
   <line x1="328" x2="328" y1="595" y2="595" stroke="#800000" stroke-width="1" stroke-dasharray="16,8"/>
   <path d="M328,595 A5,5 0 0,0 323,590" fill="none" stroke="#800000" stroke-width="1" stroke-dasharray="16,8"/>
   <polyline fill="none" points="319,697 323,710 327,697" stroke="#800000" stroke-width="1"/>
   <polyline fill="none" points="374,744 385,744" stroke="#800000" stroke-width="1" stroke-dasharray="16,8"/>
   <path d="M395,744 L447,744 A8,8 0 0,0 455,736 L455,632" fill="none" stroke="#800000" stroke-width="1" stroke-dasharray="16,8"/>
   <path d="M395,744 A5,5 0 0,0 390,739" fill="none" stroke="#800000" stroke-width="1" stroke-dasharray="16,8"/>
   <line x1="390" x2="390" y1="739" y2="739" stroke="#800000" stroke-width="1" stroke-dasharray="16,8"/>
   <path d="M390,739 A5,5 0 0,0 385,744" fill="none" stroke="#800000" stroke-width="1" stroke-dasharray="16,8"/>
   <polyline fill="none" points="387,740 374,744 387,748" stroke="#800000" stroke-width="1"/>
   <polyline fill="none" points="250,201 250,277" stroke="#800000" stroke-width="1" stroke-dasharray="16,8"/>
   <polyline fill="none" points="246,264 250,277 254,264" stroke="#800000" stroke-width="1"/>
   <polyline fill="none" points="165,284 165,206" stroke="#800000" stroke-width="1"/>
   <polyline fill="none" points="161,498 168,498" stroke="#800000" stroke-width="1"/>
   <path d="M627,639 L627,904 A8,8 0 0,1 619,912 L405,912" fill="none" stroke="#800000" stroke-width="1"/>
   <polyline fill="none" points="84,912 286,912" stroke="#800000" stroke-width="1"/>
   <polyline fill="none" points="560,303 387,303" stroke="#800000" stroke-width="1"/>
   <polyline fill="none" points="86,706 123,706" stroke="#800000" stroke-width="1"/>
   <path d="M512,595 L557,595 A8,8 0 0,0 565,587 L565,464" fill="none" stroke="#800000" stroke-width="1"/>
   <polyline fill="none" points="565,454 565,437" stroke="#800000" stroke-width="1"/>
   <path d="M565,464 A5,5 0 0,0 570,459" fill="none" stroke="#800000" stroke-width="1"/>
   <line x1="570" x2="570" y1="459" y2="459" stroke="#800000" stroke-width="1"/>
   <path d="M570,459 A5,5 0 0,0 565,454" fill="none" stroke="#800000" stroke-width="1"/>
   <polyline fill="none" points="132,686 132,617" stroke="#800000" stroke-width="1"/>
   <polyline fill="none" points="132,606 132,536" stroke="#800000" stroke-width="1"/>
   <path d="M132,617 A5,5 0 0,0 138,611" fill="none" stroke="#800000" stroke-width="1"/>
   <line x1="138" x2="138" y1="611" y2="611" stroke="#800000" stroke-width="1"/>
   <path d="M138,611 A5,5 0 0,0 132,606" fill="none" stroke="#800000" stroke-width="1"/>
   <polyline fill="none" points="580,611 506,611" stroke="#800000" stroke-width="1"/>
   <polyline fill="none" points="351,716 385,716" stroke="#800000" stroke-width="1"/>
   <polyline fill="none" points="395,716 449,716" stroke="#800000" stroke-width="1"/>
   <path d="M395,716 A5,5 0 0,0 390,711" fill="none" stroke="#800000" stroke-width="1"/>
   <line x1="390" x2="390" y1="711" y2="711" stroke="#800000" stroke-width="1"/>
   <path d="M390,711 A5,5 0 0,0 385,716" fill="none" stroke="#800000" stroke-width="1"/>
   <path d="M460,716 L587,716 A8,8 0 0,0 595,708 L595,639" fill="none" stroke="#800000" stroke-width="1"/>
   <path d="M460,716 A5,5 0 0,0 455,711" fill="none" stroke="#800000" stroke-width="1"/>
   <line x1="455" x2="455" y1="711" y2="711" stroke="#800000" stroke-width="1"/>
   <path d="M455,711 A5,5 0 0,0 449,716" fill="none" stroke="#800000" stroke-width="1"/>
   <polyline fill="none" points="251,277 170,277" stroke="#800000" stroke-width="1"/>
   <path d="M160,277 L129,277 A8,8 0 0,0 121,285 L121,426" fill="none" stroke="#800000" stroke-width="1"/>
   <path d="M170,277 A5,5 0 0,0 165,271" fill="none" stroke="#800000" stroke-width="1"/>
   <line x1="165" x2="165" y1="271" y2="271" stroke="#800000" stroke-width="1"/>
   <path d="M165,271 A5,5 0 0,0 160,277" fill="none" stroke="#800000" stroke-width="1"/>
   <polyline fill="none" points="121,436 121,472" stroke="#800000" stroke-width="1"/>
   <path d="M121,436 A5,5 0 0,0 126,431" fill="none" stroke="#800000" stroke-width="1"/>
   <line x1="126" x2="126" y1="431" y2="431" stroke="#800000" stroke-width="1"/>
   <path d="M126,431 A5,5 0 0,0 121,426" fill="none" stroke="#800000" stroke-width="1"/>
   <a target="_parent" xlink:href="Use_20.htm#1">
      <defs>
         <linearGradient id="Gradient1" x1="0%" x2="100%" y1="0%" y2="100%" gradientUnits="objectBoundingBox">
            <stop offset="5%" stop-color="#ffffff"/>
            <stop offset="95%" stop-color="#804040"/>
         </linearGradient>
      </defs>
      <ellipse cx="51" cy="131" rx="8" ry="8" fill="url(#Gradient1)" stroke="#800000" stroke-width="2"/>
      <line x1="51" x2="51" y1="139" y2="155" stroke="#800000" stroke-width="2"/>
      <line x1="35" x2="67" y1="147" y2="147" stroke="#800000" stroke-width="2"/>
      <line x1="35" x2="51" y1="171" y2="155" stroke="#800000" stroke-width="2"/>
      <line x1="67" x2="51" y1="171" y2="155" stroke="#800000" stroke-width="2"/>
      <text x="51" y="182" fill="#000000" font-size="10" font-family="'Arial Unicode MS','Arial'" text-anchor="middle">Visitante</text>
   </a>
   <a target="_parent" xlink:href="Use_19.htm#1">
      <defs>
         <linearGradient id="Gradient2" x1="0%" x2="100%" y1="0%" y2="100%" gradientUnits="objectBoundingBox">
            <stop offset="5%" stop-color="#ffffff"/>
            <stop offset="95%" stop-color="#804040"/>
         </linearGradient>
      </defs>
      <ellipse cx="56" cy="396" rx="8" ry="8" fill="url(#Gradient2)" stroke="#800000" stroke-width="2"/>
      <line x1="56" x2="56" y1="404" y2="420" stroke="#800000" stroke-width="2"/>
      <line x1="40" x2="72" y1="412" y2="412" stroke="#800000" stroke-width="2"/>
      <line x1="40" x2="56" y1="436" y2="420" stroke="#800000" stroke-width="2"/>
      <line x1="72" x2="56" y1="436" y2="420" stroke="#800000" stroke-width="2"/>
      <text x="56" y="447" fill="#000000" font-size="10" font-family="'Arial Unicode MS','Arial'" text-anchor="middle">Utilizador Geral</text>
   </a>
   <a target="_parent" xlink:href="Use_14.htm#1">
      <defs>
         <linearGradient id="Gradient3" x1="0%" x2="100%" y1="0%" y2="100%" gradientUnits="objectBoundingBox">
            <stop offset="5%" stop-color="#ffffff"/>
            <stop offset="95%" stop-color="#804040"/>
         </linearGradient>
      </defs>
      <ellipse cx="53" cy="684" rx="8" ry="8" fill="url(#Gradient3)" stroke="#800000" stroke-width="2"/>
      <line x1="53" x2="53" y1="692" y2="708" stroke="#800000" stroke-width="2"/>
      <line x1="37" x2="69" y1="700" y2="700" stroke="#800000" stroke-width="2"/>
      <line x1="37" x2="53" y1="724" y2="708" stroke="#800000" stroke-width="2"/>
      <line x1="69" x2="53" y1="724" y2="708" stroke="#800000" stroke-width="2"/>
      <text x="53" y="735" fill="#000000" font-size="10" font-family="'Arial Unicode MS','Arial'" text-anchor="middle">Gerente</text>
   </a>
   <a target="_parent" xlink:href="Use_9.htm#1">
      <defs>
         <linearGradient id="Gradient4" x1="0%" x2="100%" y1="0%" y2="100%" gradientUnits="objectBoundingBox">
            <stop offset="5%" stop-color="#ffffff"/>
            <stop offset="95%" stop-color="#804040"/>
         </linearGradient>
      </defs>
      <ellipse cx="51" cy="909" rx="8" ry="8" fill="url(#Gradient4)" stroke="#800000" stroke-width="2"/>
      <line x1="51" x2="51" y1="917" y2="933" stroke="#800000" stroke-width="2"/>
      <line x1="35" x2="67" y1="925" y2="925" stroke="#800000" stroke-width="2"/>
      <line x1="35" x2="51" y1="949" y2="933" stroke="#800000" stroke-width="2"/>
      <line x1="67" x2="51" y1="949" y2="933" stroke="#800000" stroke-width="2"/>
      <text x="51" y="960" fill="#000000" font-size="10" font-family="'Arial Unicode MS','Arial'" text-anchor="middle">Adminstrador</text>
   </a>
   <a target="_parent" xlink:href="Use_15.htm#1">
      <defs>
         <linearGradient id="Gradient5" x1="0%" x2="100%" y1="0%" y2="100%" gradientUnits="objectBoundingBox">
            <stop offset="5%" stop-color="#ffffff"/>
            <stop offset="95%" stop-color="#804040"/>
         </linearGradient>
      </defs>
      <ellipse cx="593" cy="287" rx="8" ry="8" fill="url(#Gradient5)" stroke="#800000" stroke-width="2"/>
      <line x1="593" x2="593" y1="295" y2="311" stroke="#800000" stroke-width="2"/>
      <line x1="577" x2="609" y1="303" y2="303" stroke="#800000" stroke-width="2"/>
      <line x1="577" x2="593" y1="327" y2="311" stroke="#800000" stroke-width="2"/>
      <line x1="609" x2="593" y1="327" y2="311" stroke="#800000" stroke-width="2"/>
      <text x="593" y="338" fill="#000000" font-size="10" font-family="'Arial Unicode MS','Arial'" text-anchor="middle">Gmail</text>
   </a>
   <a target="_parent" xlink:href="Use_12.htm#1">
      <defs>
         <linearGradient id="Gradient6" x1="0%" x2="100%" y1="0%" y2="100%" gradientUnits="objectBoundingBox">
            <stop offset="5%" stop-color="#ffffff"/>
            <stop offset="95%" stop-color="#804040"/>
         </linearGradient>
      </defs>
      <ellipse cx="128" cy="481" rx="8" ry="8" fill="url(#Gradient6)" stroke="#800000" stroke-width="2"/>
      <line x1="128" x2="128" y1="489" y2="505" stroke="#800000" stroke-width="2"/>
      <line x1="112" x2="144" y1="497" y2="497" stroke="#800000" stroke-width="2"/>
      <line x1="112" x2="128" y1="521" y2="505" stroke="#800000" stroke-width="2"/>
      <line x1="144" x2="128" y1="521" y2="505" stroke="#800000" stroke-width="2"/>
      <text x="127" y="532" fill="#000000" font-size="10" font-family="'Arial Unicode MS','Arial'" text-anchor="middle">BD MBQ</text>
   </a>
   <a target="_parent" xlink:href="Use_11.htm#1">
      <defs>
         <linearGradient id="Gradient7" x1="0%" x2="100%" y1="0%" y2="100%" gradientUnits="objectBoundingBox">
            <stop offset="5%" stop-color="#ffffff"/>
            <stop offset="95%" stop-color="#804040"/>
         </linearGradient>
      </defs>
      <ellipse cx="613" cy="584" rx="8" ry="8" fill="url(#Gradient7)" stroke="#800000" stroke-width="2"/>
      <line x1="613" x2="613" y1="592" y2="608" stroke="#800000" stroke-width="2"/>
      <line x1="597" x2="629" y1="600" y2="600" stroke="#800000" stroke-width="2"/>
      <line x1="597" x2="613" y1="624" y2="608" stroke="#800000" stroke-width="2"/>
      <line x1="629" x2="613" y1="624" y2="608" stroke="#800000" stroke-width="2"/>
      <text x="613" y="635" fill="#000000" font-size="10" font-family="'Arial Unicode MS','Arial'" text-anchor="middle">BD Identity</text>
   </a>
   <a target="_parent" xlink:href="Use_17.htm#1">
      <defs>
         <linearGradient id="Gradient8" x1="0%" x2="100%" y1="0%" y2="100%" gradientUnits="objectBoundingBox">
            <stop offset="5%" stop-color="#ffffff"/>
            <stop offset="95%" stop-color="#804040"/>
         </linearGradient>
      </defs>
      <ellipse cx="591" cy="153" rx="8" ry="8" fill="url(#Gradient8)" stroke="#800000" stroke-width="2"/>
      <line x1="591" x2="591" y1="161" y2="177" stroke="#800000" stroke-width="2"/>
      <line x1="575" x2="607" y1="169" y2="169" stroke="#800000" stroke-width="2"/>
      <line x1="575" x2="591" y1="193" y2="177" stroke="#800000" stroke-width="2"/>
      <line x1="607" x2="591" y1="193" y2="177" stroke="#800000" stroke-width="2"/>
      <text x="591" y="204" fill="#000000" font-size="10" font-family="'Arial Unicode MS','Arial'" text-anchor="middle">JotForm</text>
   </a>
   <a target="_parent" xlink:href="Use_10.htm#1">
      <defs>
         <linearGradient id="Gradient9" x1="0%" x2="100%" y1="0%" y2="100%" gradientUnits="objectBoundingBox">
            <stop offset="5%" stop-color="#ffffff"/>
            <stop offset="95%" stop-color="#804040"/>
         </linearGradient>
      </defs>
      <ellipse cx="165" cy="293" rx="8" ry="8" fill="url(#Gradient9)" stroke="#800000" stroke-width="2"/>
      <line x1="165" x2="165" y1="301" y2="317" stroke="#800000" stroke-width="2"/>
      <line x1="149" x2="181" y1="309" y2="309" stroke="#800000" stroke-width="2"/>
      <line x1="149" x2="165" y1="333" y2="317" stroke="#800000" stroke-width="2"/>
      <line x1="181" x2="165" y1="333" y2="317" stroke="#800000" stroke-width="2"/>
      <text x="165" y="344" fill="#000000" font-size="10" font-family="'Arial Unicode MS','Arial'" text-anchor="middle">Azure Bot</text>
   </a>
   <a target="_parent" xlink:href="Use_27.htm#1">
      <defs>
         <linearGradient id="Gradient10" x1="0%" x2="0%" y1="0%" y2="100%" gradientUnits="objectBoundingBox">
            <stop offset="5%" stop-color="#ffcf9f"/>
            <stop offset="95%" stop-color="#ffffff"/>
         </linearGradient>
      </defs>
      <ellipse cx="200" cy="174" rx="71" ry="36" fill="url(#Gradient10)" stroke="#800000" stroke-width="2"/>
      <text x="200" y="177" fill="#000000" font-size="10" font-family="'Arial Unicode MS','Arial'" text-anchor="middle">Navegar pelo website</text>
   </a>
   <a target="_parent" xlink:href="Use_23.htm#1">
      <defs>
         <linearGradient id="Gradient11" x1="0%" x2="0%" y1="0%" y2="100%" gradientUnits="objectBoundingBox">
            <stop offset="5%" stop-color="#ffcf9f"/>
            <stop offset="95%" stop-color="#ffffff"/>
         </linearGradient>
      </defs>
      <ellipse cx="398" cy="459" rx="48" ry="36" fill="url(#Gradient11)" stroke="#800000" stroke-width="2"/>
      <text x="398" y="462" fill="#000000" font-size="10" font-family="'Arial Unicode MS','Arial'" text-anchor="middle">Criar Conta</text>
   </a>
   <a target="_parent" xlink:href="Use_28.htm#1">
      <defs>
         <linearGradient id="Gradient12" x1="0%" x2="0%" y1="0%" y2="100%" gradientUnits="objectBoundingBox">
            <stop offset="5%" stop-color="#ffcf9f"/>
            <stop offset="95%" stop-color="#ffffff"/>
         </linearGradient>
      </defs>
      <ellipse cx="454" cy="595" rx="56" ry="36" fill="url(#Gradient12)" stroke="#800000" stroke-width="2"/>
      <text x="454" y="598" fill="#000000" font-size="10" font-family="'Arial Unicode MS','Arial'" text-anchor="middle">Registar Entrada</text>
   </a>
   <a target="_parent" xlink:href="Use_30.htm#1">
      <defs>
         <linearGradient id="Gradient13" x1="0%" x2="0%" y1="0%" y2="100%" gradientUnits="objectBoundingBox">
            <stop offset="5%" stop-color="#ffcf9f"/>
            <stop offset="95%" stop-color="#ffffff"/>
         </linearGradient>
      </defs>
      <ellipse cx="322" cy="747" rx="50" ry="36" fill="url(#Gradient13)" stroke="#800000" stroke-width="2"/>
      <text x="322" y="750" fill="#000000" font-size="10" font-family="'Arial Unicode MS','Arial'" text-anchor="middle">Registar Saida</text>
   </a>
   <a target="_parent" xlink:href="Use_22.htm#1">
      <defs>
         <linearGradient id="Gradient14" x1="0%" x2="0%" y1="0%" y2="100%" gradientUnits="objectBoundingBox">
            <stop offset="5%" stop-color="#ffcf9f"/>
            <stop offset="95%" stop-color="#ffffff"/>
         </linearGradient>
      </defs>
      <ellipse cx="541" cy="760" rx="78" ry="36" fill="url(#Gradient14)" stroke="#800000" stroke-width="2"/>
      <text x="541" y="763" fill="#000000" font-size="10" font-family="'Arial Unicode MS','Arial'" text-anchor="middle">Alterar Dados de Log in</text>
   </a>
   <a target="_parent" xlink:href="Use_31.htm#1">
      <defs>
         <linearGradient id="Gradient15" x1="0%" x2="0%" y1="0%" y2="100%" gradientUnits="objectBoundingBox">
            <stop offset="5%" stop-color="#ffcf9f"/>
            <stop offset="95%" stop-color="#ffffff"/>
         </linearGradient>
      </defs>
      <ellipse cx="255" cy="498" rx="86" ry="36" fill="url(#Gradient15)" stroke="#800000" stroke-width="2"/>
      <text x="193" y="501" fill="#000000" font-size="10" font-family="'Arial Unicode MS','Arial'" text-anchor="start">Utilizar a Papi Api para registro em eventos</text>
   </a>
   <a target="_parent" xlink:href="Use_29.htm#1">
      <defs>
         <linearGradient id="Gradient16" x1="0%" x2="0%" y1="0%" y2="100%" gradientUnits="objectBoundingBox">
            <stop offset="5%" stop-color="#ffcf9f"/>
            <stop offset="95%" stop-color="#ffffff"/>
         </linearGradient>
      </defs>
      <ellipse cx="315" cy="295" rx="73" ry="36" fill="url(#Gradient16)" stroke="#800000" stroke-width="2"/>
      <text x="314" y="298" fill="#000000" font-size="10" font-family="'Arial Unicode MS','Arial'" text-anchor="middle">Registar na newsletter</text>
   </a>
   <a target="_parent" xlink:href="Use_25.htm#1">
      <defs>
         <linearGradient id="Gradient17" x1="0%" x2="0%" y1="0%" y2="100%" gradientUnits="objectBoundingBox">
            <stop offset="5%" stop-color="#ffcf9f"/>
            <stop offset="95%" stop-color="#ffffff"/>
         </linearGradient>
      </defs>
      <ellipse cx="179" cy="706" rx="55" ry="36" fill="url(#Gradient17)" stroke="#800000" stroke-width="2"/>
      <text x="179" y="709" fill="#000000" font-size="10" font-family="'Arial Unicode MS','Arial'" text-anchor="middle">Gerir a Papi Api</text>
   </a>
   <a target="_parent" xlink:href="Use_26.htm#1">
      <defs>
         <linearGradient id="Gradient18" x1="0%" x2="0%" y1="0%" y2="100%" gradientUnits="objectBoundingBox">
            <stop offset="5%" stop-color="#ffcf9f"/>
            <stop offset="95%" stop-color="#ffffff"/>
         </linearGradient>
      </defs>
      <ellipse cx="345" cy="912" rx="58" ry="36" fill="url(#Gradient18)" stroke="#800000" stroke-width="2"/>
      <text x="345" y="915" fill="#000000" font-size="10" font-family="'Arial Unicode MS','Arial'" text-anchor="middle">Gerir Identidades</text>
   </a>
   <a target="_parent" xlink:href="Use_18.htm#1">
      <defs>
         <linearGradient id="Gradient19" x1="0%" x2="100%" y1="0%" y2="100%" gradientUnits="objectBoundingBox">
            <stop offset="5%" stop-color="#ffffff"/>
            <stop offset="95%" stop-color="#804040"/>
         </linearGradient>
      </defs>
      <ellipse cx="622" cy="383" rx="8" ry="8" fill="url(#Gradient19)" stroke="#800000" stroke-width="2"/>
      <line x1="622" x2="622" y1="391" y2="407" stroke="#800000" stroke-width="2"/>
      <line x1="606" x2="638" y1="399" y2="399" stroke="#800000" stroke-width="2"/>
      <line x1="606" x2="622" y1="423" y2="407" stroke="#800000" stroke-width="2"/>
      <line x1="638" x2="622" y1="423" y2="407" stroke="#800000" stroke-width="2"/>
      <text x="621" y="434" fill="#000000" font-size="10" font-family="'Arial Unicode MS','Arial'" text-anchor="middle">Twitter</text>
   </a>
   <a target="_parent" xlink:href="Use_13.htm#1">
      <defs>
         <linearGradient id="Gradient20" x1="0%" x2="100%" y1="0%" y2="100%" gradientUnits="objectBoundingBox">
            <stop offset="5%" stop-color="#ffffff"/>
            <stop offset="95%" stop-color="#804040"/>
         </linearGradient>
      </defs>
      <ellipse cx="565" cy="382" rx="8" ry="8" fill="url(#Gradient20)" stroke="#800000" stroke-width="2"/>
      <line x1="565" x2="565" y1="390" y2="406" stroke="#800000" stroke-width="2"/>
      <line x1="549" x2="581" y1="398" y2="398" stroke="#800000" stroke-width="2"/>
      <line x1="549" x2="565" y1="422" y2="406" stroke="#800000" stroke-width="2"/>
      <line x1="581" x2="565" y1="422" y2="406" stroke="#800000" stroke-width="2"/>
      <text x="564" y="433" fill="#000000" font-size="10" font-family="'Arial Unicode MS','Arial'" text-anchor="middle">Facebook</text>
   </a>
   <a target="_parent" xlink:href="Use_16.htm#1">
      <defs>
         <linearGradient id="Gradient21" x1="0%" x2="100%" y1="0%" y2="100%" gradientUnits="objectBoundingBox">
            <stop offset="5%" stop-color="#ffffff"/>
            <stop offset="95%" stop-color="#804040"/>
         </linearGradient>
      </defs>
      <ellipse cx="513" cy="383" rx="8" ry="8" fill="url(#Gradient21)" stroke="#800000" stroke-width="2"/>
      <line x1="513" x2="513" y1="391" y2="407" stroke="#800000" stroke-width="2"/>
      <line x1="497" x2="529" y1="399" y2="399" stroke="#800000" stroke-width="2"/>
      <line x1="497" x2="513" y1="423" y2="407" stroke="#800000" stroke-width="2"/>
      <line x1="529" x2="513" y1="423" y2="407" stroke="#800000" stroke-width="2"/>
      <text x="513" y="434" fill="#000000" font-size="10" font-family="'Arial Unicode MS','Arial'" text-anchor="middle">Google</text>
   </a>
   <text x="341" y="635" fill="#000000" font-size="10" font-family="'Arial Unicode MS','Arial'" text-anchor="middle">Extended</text>
   <text x="480" y="523" fill="#000000" font-size="10" font-family="'Arial Unicode MS','Arial'" text-anchor="middle">Extended</text>
   <a target="_parent" xlink:href="Use_24.htm#1">
      <defs>
         <linearGradient id="Gradient22" x1="0%" x2="0%" y1="0%" y2="100%" gradientUnits="objectBoundingBox">
            <stop offset="5%" stop-color="#ffcf9f"/>
            <stop offset="95%" stop-color="#ffffff"/>
         </linearGradient>
      </defs>
      <ellipse cx="414" cy="181" rx="61" ry="36" fill="url(#Gradient22)" stroke="#800000" stroke-width="2"/>
      <text x="414" y="184" fill="#000000" font-size="10" font-family="'Arial Unicode MS','Arial'" text-anchor="middle">Enviar Mensagem</text>
   </a>
   <text x="307" y="174" fill="#000000" font-size="10" font-family="'Arial Unicode MS','Arial'" text-anchor="middle">Extended</text>
   <text x="258" y="228" fill="#000000" font-size="10" font-family="'Arial Unicode MS','Arial'" text-anchor="middle">Extended</text>
</svg>
